<?xml version="1.0" encoding="UTF-8" standalone="no"?>
<!-- Created with Inkscape (http://www.inkscape.org/) -->

<svg
   width="1006.3068"
   height="273.39551"
   viewBox="0 0 266.25199 72.335893"
   version="1.1"
   id="svg1"
   xml:space="preserve"
   xmlns="http://www.w3.org/2000/svg"
   xmlns:svg="http://www.w3.org/2000/svg"><defs
     id="defs1" /><g
     id="layer1"
     style="display:inline"
     transform="translate(-20.814296,-82.697955)"><path
       style="fill:#10b981;fill-opacity:1;stroke-width:0.323011"
       d="m 225.16604,154.89632 c -2.79836,-0.55842 -6.2061,-2.59863 -8.41604,-5.03868 -3.10598,-3.42938 -4.34286,-7.17566 -3.72898,-11.29435 0.44529,-2.98752 1.60615,-4.86199 3.64242,-5.88147 0.91299,-0.4571 1.778,-0.60664 3.17936,-0.54966 2.79365,0.11365 5.07598,1.3472 6.91231,3.73614 0.82664,1.0754 1.083,1.48065 1.64589,2.60177 0.49238,0.9807 0.99601,2.38542 1.21931,3.40086 0.21652,0.98467 0.16713,2.87357 -0.094,3.59418 -0.42508,1.17314 -1.13629,1.87808 -2.38551,2.36443 -0.87056,0.33891 -2.28495,0.32154 -3.30142,-0.0405 -1.86012,-0.66266 -3.73151,-2.27859 -4.56839,-3.94481 -0.34939,-0.69564 -0.37105,-0.94414 -0.14782,-1.69586 0.22044,-0.74232 0.81676,-1.3627 1.30985,-1.3627 0.52123,0 0.8566,0.31476 1.32236,1.24111 0.52532,1.0448 1.37385,1.96234 2.19359,2.37197 0.34644,0.17311 0.73654,0.31474 0.86692,0.31474 1.25107,0 1.4318,-1.77746 0.39638,-3.8984 -1.2787,-2.61926 -3.95649,-4.32264 -5.82152,-3.70319 -0.61829,0.20536 -1.54416,0.99843 -1.92571,1.64948 -0.85041,1.45112 -0.95076,3.40879 -0.27291,5.32432 0.67584,1.90983 2.32425,3.89338 4.57406,5.50403 1.34311,0.96155 3.34604,1.73905 4.47996,1.73905 2.42614,0 5.10218,-2.42174 6.15784,-5.57266 0.78579,-2.3454 0.52184,-4.75307 -0.82251,-7.50286 -0.77528,-1.58582 -1.64261,-2.80554 -3.00447,-4.22519 -1.8082,-1.88497 -3.03036,-2.6619 -5.78836,-3.6797 -2.30687,-0.85131 -2.92831,-1.31797 -2.87344,-2.1578 0.0263,-0.40172 0.0814,-0.50749 0.36389,-0.69726 0.35423,-0.23798 1.58358,-0.56683 3.02636,-0.80957 2.18081,-0.36687 6.19413,-0.76058 14.31589,-1.40436 5.77148,-0.4575 9.67656,-0.79009 10.36759,-0.88303 l 0.44465,-0.0598 -0.25236,0.49813 c -0.13879,0.27395 -0.6714,1.42838 -1.18357,2.56538 -0.51216,1.137 -1.44466,3.1644 -2.07222,4.50534 -1.31018,2.79956 -1.87749,4.13321 -1.87749,4.41375 0,0.25563 0.31718,0.5387 0.60361,0.5387 0.40855,0 1.15074,-0.43018 1.57633,-0.91368 0.81271,-0.9233 3.14589,-4.53227 6.1774,-9.55528 0.74737,-1.23834 1.35886,-2.27096 1.35886,-2.29469 0,-0.0238 -0.89162,-0.0147 -1.98139,0.0202 -1.92275,0.0614 -1.97902,0.0574 -1.90119,-0.13436 0.35017,-0.86279 0.69712,-2.05965 0.74706,-2.5772 0.0589,-0.60962 0.0468,-0.64788 -0.58566,-1.86055 -0.58901,-1.12932 -0.8782,-1.60066 -1.6093,-2.623 -0.66884,-0.93528 -0.16667,-1.92474 3.41159,-6.72221 1.21135,-1.62407 2.5069,-3.41844 2.879,-3.98748 3.52315,-5.38761 4.79722,-11.469187 3.85427,-18.397778 -0.35287,-2.592877 -0.38585,-3.856305 -0.11536,-4.423345 0.52504,-1.100983 1.86846,-0.867926 3.31024,0.574268 2.6114,2.612105 4.93596,8.852488 5.52887,14.842442 0.13683,1.382353 0.13548,4.797983 -0.002,6.320073 -0.15875,1.75132 -0.58735,4.6378 -0.89014,5.99487 -0.94198,4.22208 -2.67487,8.29704 -4.47262,10.51751 -0.28767,0.35531 -0.48298,0.64603 -0.43401,0.64603 0.16151,0 5.56074,-1.71261 10.8667,-3.44684 6.54243,-2.13838 7.9009,-2.54823 8.44611,-2.54825 1.49785,-6e-5 4.36855,2.13152 5.77359,4.28705 0.74012,1.13543 1.13086,2.12462 1.33396,3.377 0.50084,3.08814 -0.32512,5.55021 -2.38514,7.10967 -0.87585,0.66305 -1.79462,1.01033 -4.22755,1.59801 -1.08015,0.26091 -3.10609,0.7503 -4.50205,1.08751 -3.9666,0.95821 -6.52006,1.7378 -8.7802,2.6807 -0.54008,0.22531 -3.02856,1.4083 -5.52996,2.62886 -5.50762,2.68745 -13.55563,6.53004 -21.96482,10.48728 -8.97897,4.22537 -11.04661,5.16748 -11.7339,5.34649 -0.72338,0.18842 -1.70624,0.19042 -2.63366,0.005 z m 8.4823,-20.0059 c 0.35251,-0.18867 0.63061,-0.88923 0.62731,-1.58026 -0.01,-1.97145 -2.78751,-4.7982 -5.29694,-5.38975 -1.02477,-0.24155 -1.39891,-0.21093 -1.75335,0.1435 -0.53629,0.53629 -0.4476,0.68649 0.95057,1.61008 1.72383,1.13873 2.76218,2.13813 3.8115,3.66853 0.73045,1.06534 1.23509,1.65471 1.41678,1.65471 0.0245,0 0.13434,-0.0481 0.24413,-0.10681 z m 46.23069,-4.90606 c 1.30605,-0.22775 1.95341,-0.50395 2.55531,-1.0902 1.43756,-1.40023 1.99473,-4.56925 1.0662,-6.06416 -0.34212,-0.5508 -0.93588,-0.91292 -1.33338,-0.81315 -0.47276,0.11867 -0.62999,0.38554 -0.70545,1.19741 -0.14442,1.55389 -0.94429,3.1588 -1.75238,3.51606 -0.23778,0.10511 -1.01375,0.26563 -1.72437,0.35667 -1.46401,0.18756 -1.83387,0.28368 -2.45216,0.63731 -0.4862,0.27809 -0.95886,0.97858 -0.95886,1.42105 0,0.38841 0.43638,0.76448 0.96597,0.83251 0.23619,0.0303 0.54573,0.0728 0.68786,0.0941 0.68766,0.10378 2.85161,0.0518 3.65126,-0.0877 z m -27.03537,-9.74231 c 0.11317,-0.0995 0.91605,-1.76236 1.78419,-3.69526 0.86815,-1.93291 2.13037,-4.7128 2.80495,-6.17754 0.67457,-1.46475 1.36147,-3.00297 1.52646,-3.4183 1.15995,-2.91998 2.17312,-8.439199 2.17627,-11.855234 0.002,-2.969066 -1.05783,-8.266025 -1.65509,-8.266025 -0.15943,0 -0.12013,0.572387 0.14939,2.178074 0.50733,3.021964 0.58268,4.889679 0.31822,7.887677 -0.33952,3.848688 -0.63911,5.055288 -2.53103,10.193558 -1.50278,4.08142 -2.15231,5.48951 -4.38146,9.49828 -0.48658,0.87502 -0.96144,1.82205 -1.05526,2.10449 -0.37403,1.12615 0.19124,2.14119 0.86336,1.55028 z m 6.22571,-1.47853 c 0.92805,-0.25081 1.49561,-0.64811 1.42792,-0.99957 -0.0311,-0.16146 -0.21574,-0.17946 -1.89403,-0.18459 -1.64935,-0.005 -1.93223,-0.0316 -2.50234,-0.23487 -0.35351,-0.12605 -0.71086,-0.2292 -0.7941,-0.2292 -0.23964,0 -0.29223,0.36364 -0.11415,0.78971 0.21749,0.52052 0.43427,0.75034 0.9309,0.98686 0.53731,0.25589 1.71376,0.20465 2.94586,-0.12834 z m -9.04023,-1.85949 c 0.15277,-0.1688 0.20689,-0.4648 0.26934,-1.47293 0.0546,-0.88015 0.1433,-1.42899 0.29358,-1.81493 0.2178,-0.55937 0.20093,-0.94552 -0.0413,-0.94552 -0.0728,0 -0.29962,0.16257 -0.50421,0.36126 -1.21609,1.18106 -1.69345,2.49789 -1.27155,3.50764 0.24416,0.58435 0.8863,0.77096 1.25414,0.36448 z m 11.11924,-2.4757 c 0.41279,-0.0763 0.63182,-0.18535 0.847,-0.42178 0.43662,-0.47976 0.34244,-0.6719 -0.30859,-0.62958 -0.34361,0.0224 -0.87482,-0.0594 -1.51017,-0.23257 -1.41521,-0.38556 -1.73145,-0.34068 -1.72414,0.24463 0.01,0.80257 1.29532,1.29807 2.6959,1.0393 z m 0.24167,-3.97126 c 0.36815,-0.15381 0.62488,-0.50099 0.53798,-0.72746 -0.0794,-0.20694 -2.21355,-0.33245 -2.40459,-0.14141 -0.2047,0.20468 0.0708,0.56836 0.61911,0.81735 0.5136,0.23324 0.7857,0.24448 1.2475,0.0515 z"
       id="path1" /><path
       style="display:none;fill:#10b981;fill-opacity:1;stroke:none;stroke-width:0.264583px;stroke-linecap:butt;stroke-linejoin:miter;stroke-opacity:1"
       d="m 114.79603,92.775396 -13.24318,15.964174 6.21497,6.58898 17.00841,-5.12213 6.78002,-7.62204 -4.43432,-11.470451 z"
       id="path10" /><text
       xml:space="preserve"
       style="font-style:normal;font-weight:normal;font-size:50.8px;line-height:1.25;font-family:sans-serif;display:none;fill:#000000;fill-opacity:1;stroke:none;stroke-width:0.264583"
       x="83.995506"
       y="134.66656"
       id="text1"><tspan
         id="tspan1"
         style="font-style:normal;font-variant:normal;font-weight:normal;font-stretch:normal;font-size:50.8px;font-family:Sofia;-inkscape-font-specification:Sofia;stroke-width:0.264583"
         x="0"
         y="0">SCRIBE</tspan></text><path
       style="font-size:50.8px;line-height:1.25;font-family:Sofia;-inkscape-font-specification:Sofia;fill:#666666;fill-opacity:1;stroke-width:0.264583"
       d="m 44.080726,137.20306 q 0,-2.4384 -1.1684,-4.1656 -1.11761,-1.7272 -2.946411,-2.6924 -1.778,-0.9652 -3.96241,-1.7272 -2.184411,-0.762 -4.368809,-1.524 -2.184398,-0.8128 -4.013199,-1.8796 -1.777998,-1.1176 -2.946399,-3.048 -1.1176,-1.9304 -1.1176,-4.6736 0,-4.7244 3.454405,-7.41681 3.505199,-2.69241 8.940802,-2.69241 5.486411,0 8.737631,2.48921 3.25122,2.48921 3.25122,5.43561 0,2.032 -0.81281,3.048 -0.762,0.9652 -1.82881,0.9652 -1.98121,0 -2.54001,-0.762 l -0.1524,-0.254 q 0.508,-0.6604 0.508,-2.54 0,-2.8956 -2.438411,-4.5212 -2.4384,-1.67641 -5.68962,-1.67641 -3.200399,0 -5.08,1.72721 -1.879598,1.7272 -1.879598,4.2164 0,2.4892 1.117604,4.1656 1.168401,1.6256 2.997202,2.54 1.828798,0.9144 4.013202,1.6256 2.23521,0.7112 4.41961,1.5748 2.235211,0.8128 4.064021,2.032 1.82881,1.1684 2.94641,3.3528 1.16841,2.1844 1.16841,5.2832 0,5.43559 -3.86082,8.33119 -3.860821,2.8956 -9.702841,2.8956 -5.791197,0 -10.109193,-2.9464 -4.267206,-2.9972 -4.267206,-7.46759 0,-2.0828 0.812801,-3.2512 0.8128,-1.2192 1.930401,-1.2192 1.981201,0 2.539998,0.6604 l 0.1524,0.254 q -0.457197,1.27 -0.457197,3.0988 0,3.4544 2.793995,6.04519 2.844802,2.5908 7.416811,2.5908 3.30201,0 5.689611,-2.286 2.38761,-2.33679 2.38761,-5.58799 z m 40.284649,-3.81 q 0.254,-0.3048 0.86361,-0.3048 0.6604,0 1.0668,0.4572 0.4064,0.4572 0.4064,1.7272 0,1.27 -0.8636,3.4036 -0.8128,2.0828 -2.43841,4.21639 -1.62561,2.0828 -4.52123,3.4544 -2.84482,1.3716 -6.40084,1.3716 -8.22964,0 -13.20807,-5.2832 -4.97843,-5.33399 -4.97843,-15.13839 0,-9.8552 4.67363,-14.7828 4.72443,-4.97842 12.34447,-4.97842 4.92762,0 7.72164,2.54001 2.79402,2.54001 2.79402,5.63881 0,1.27 -0.76201,2.032 -0.762,0.762 -1.524,0.762 -1.42241,0 -1.93042,-0.6096 0.30481,-0.762 0.30481,-1.8796 0,-2.7432 -1.77802,-4.3688 -1.7272,-1.62561 -5.08002,-1.62561 -5.02923,0 -8.58525,4.82601 -3.50522,4.7752 -3.50522,12.7 0,7.9248 3.91162,12.8016 3.91162,4.82599 9.39805,4.82599 5.48643,0 8.78845,-3.302 3.30202,-3.35279 3.30202,-8.48359 z m 1.01603,-15.6464 q 0,0.9652 0.3048,1.8796 -0.3048,0.6096 -1.37161,0.6096 -1.0668,0 -1.82881,-0.762 -0.762,-0.762 -0.762,-2.032 0,-2.8956 2.48921,-5.334 2.43841,-2.48921 5.99443,-3.75922 3.60682,-1.3208 7.264444,-1.3208 17.068891,0 17.068891,12.24282 0,3.2004 -1.93041,5.7404 -1.93041,2.4892 -4.52122,3.6576 -2.54002,1.1684 -4.97843,1.1684 2.84482,0 5.02923,1.27 2.23521,1.27 3.60682,3.302 1.4224,2.032 2.59081,4.5212 1.21921,2.43839 2.38761,4.92759 1.1684,2.4892 2.54,4.5212 1.3716,2.032 3.5052,3.302 2.1844,1.27 4.9784,1.27 1.27,0 2.0828,-0.508 0.762,0.0508 0.762,0.8636 0,1.7272 -3.556,1.7272 -3.556,0 -6.35,-1.3208 -2.794,-1.3208 -4.5212,-3.4544 -1.72721,-2.1336 -3.14962,-4.7244 -1.3716,-2.54 -2.59081,-5.07999 -1.21921,-2.54 -2.59082,-4.6736 -1.3208,-2.1336 -3.40361,-3.4544 -2.08282,-1.3208 -4.775231,-1.3208 -1.32081,0 -1.32081,-1.4224 0,-0.6096 0.4064,-0.9144 0.40641,-0.3048 0.91441,-0.3048 4.724431,0 7.467641,-2.7432 2.74322,-2.794 2.74322,-6.35 0,-4.9784 -3.35282,-7.366 -3.35282,-2.38761 -8.382051,-2.38761 -4.978434,0 -8.890044,2.38761 -3.86082,2.3368 -3.86082,5.842 z m 5.89282,-1.4732 q 0,-1.524 0.762,-2.286 0.76201,-0.8128 1.82882,-0.8128 1.066804,0 2.082814,0.7112 v 22.4028 q 0,5.33399 -2.032014,8.48359 -1.98122,3.1496 -6.04523,3.1496 -4.01322,0 -6.04523,-1.8796 -2.03201,-1.8288 -2.03201,-4.8768 0,-3.91159 2.54001,-3.91159 0.6096,0 1.06681,0.3048 0.4572,0.3048 0.762,0.8636 -0.4064,1.0668 -0.4064,3.14959 0,2.0828 1.06681,3.2004 1.1176,1.0668 2.79401,1.0668 3.65761,0 3.65761,-6.50239 z m 45.567755,26.51759 q 0.508,0.4064 0.508,1.0668 0,0.6604 -0.4572,1.1176 h -13.6652 q -1.8288,0 -1.8288,-1.4732 0,-0.6604 0.4572,-1.1176 l 5.4864,-0.0508 v -30.27679 h -4.1148 q -1.8288,0 -1.8288,-1.4732 0,-0.60961 0.4572,-1.16841 h 13.6652 q 0.8636,0 1.3208,0.4572 0.508,0.4064 0.508,1.06681 0,0.6604 -0.4572,1.1176 h -4.9784 v 30.27679 h 3.6068 q 0.8636,0 1.3208,0.4572 z m 16.56083,-35.71242 1.524,-0.0508 q 7.5692,0 12.192,2.59082 4.6228,2.59081 4.6228,7.36601 0,3.556 -1.778,5.6896 -1.524,1.8796 -2.7432,2.4892 l -0.508,0.3048 q 0.8636,0.1524 2.3368,1.016 1.524,0.8128 2.4892,1.8288 0.9652,0.9652 1.778,2.8448 0.8128,1.8796 0.8128,4.1656 0,6.04519 -5.08,9.19479 -5.08,3.1496 -14.6812,3.1496 -6.90881,0 -11.22681,-3.3528 -4.2672,-3.35279 -4.2672,-7.61999 0,-0.7112 0.4572,-1.1684 0.4064,-0.4572 1.016,-0.4572 0.5588,0 0.8636,0.3048 0,3.1496 2.0828,5.4864 2.0828,2.33679 5.5372,3.45439 v -33.22319 q -2.2352,1.016 -3.6068,2.4384 -1.3716,1.3716 -1.3716,2.6416 0,1.27 0.3048,2.1844 -0.3048,0.6096 -1.3716,0.6096 -1.0668,0 -1.8288,-0.762 -0.762,-0.762 -0.762,-2.032 0,-2.3876 2.3876,-4.7244 2.3876,-2.33681 6.2484,-3.50522 v -1.9304 q 0,-1.52401 0.762,-2.286 0.762,-0.8128 1.87961,-0.8128 1.1176,0 1.9304,0.7112 z m 0.9652,38.04922 q 7.5692,0 11.3284,-2.3876 3.7592,-2.38759 3.7592,-7.41679 0,-8.636 -11.5824,-8.636 -0.508,0 -0.8636,-0.4572 -0.3556,-0.4572 -0.3556,-1.2192 0,-0.9652 1.2192,-0.9652 5.6896,0 7.62,-2.3368 1.5748,-1.8796 1.5748,-4.7244 0,-3.6068 -3.3528,-5.4864 -3.302,-1.93041 -8.5344,-1.98121 -0.9652,0 -1.5748,0.1524 v 35.4584 z m 53.84798,-13.76679 q 0.9652,0 0.9652,1.6764 0,5.6388 -3.7592,10.00759 -1.8288,2.1336 -4.826,3.4544 -2.9972,1.3208 -6.6548,1.3208 -6.604,0 -11.0744,-3.0988 -4.4196,-3.0988 -4.4196,-8.68679 0,-2.4892 0.762,-4.4196 0.762,-1.9304 1.778,-2.9972 1.0668,-1.0668 2.3876,-1.778 2.2352,-1.1684 4.2164,-1.1684 -2.7432,-0.4064 -4.7244,-2.4384 -0.9144,-0.8636 -1.6256,-2.5908 -0.6604,-1.7272 -0.6604,-3.9624 0,-4.7752 3.3528,-7.26441 3.3528,-2.54001 8.89,-2.54001 5.588,0 8.382,2.28601 2.8448,2.23521 2.8448,5.38481 0,1.27 -0.762,2.032 -0.762,0.762 -1.524,0.762 -1.27,0 -1.6764,-0.6096 0.3048,-0.762 0.3048,-1.8796 0,-2.7432 -2.0828,-4.1148 -2.0828,-1.37161 -5.4356,-1.37161 -3.3528,0 -5.4864,1.87961 -2.1336,1.8288 -2.1336,5.4356 0,7.5692 10.2108,7.5692 0.5588,0 1.016,0.3556 0.508,0.3048 0.508,0.9652 0,1.3208 -1.524,1.3208 -5.4356,0 -8.89,2.2352 -3.4544,2.2352 -3.4544,6.9088 0,4.6228 2.9464,6.95959 2.9972,2.286 8.1788,2.286 5.2324,0 9.144,-3.7592 3.9624,-3.75919 3.9624,-9.80439 0.1016,-0.3556 0.8636,-0.3556 z"
       id="text2"
       aria-label="SCRIBE" /></g></svg>
